{
  "asset": {
    "generator": "Khronos glTF Blender I/O v4.1.62",
    "version": "2.0"
  },
  "scene": 0,
  "scenes": [
    {
      "name": "Scene",
      "nodes": [
        0
      ]
    }
  ],
  "nodes": [
    {
      "mesh": 0,
      "name": "sphere_gltf"
    }
  ],
  "materials": [
    {
      "doubleSided": true,
      "name": "box_profile_metal_sheet",
      "normalTexture": {
        "index": 0
      },
      "pbrMetallicRoughness": {
        "baseColorTexture": {
          "index": 1
        },
        "metallicRoughnessTexture": {
          "index": 2
        }
      }
    }
  ],
  "meshes": [
    {
      "name": "Sphere.001",
      "primitives": [
        {
          "attributes": {
            "POSITION": 0,
            "NORMAL": 1,
            "TEXCOORD_0": 2
          },
          "indices": 3,
          "material": 0
        }
      ]
    }
  ],
  "textures": [
    {
      "sampler": 0,
      "source": 0
    },
    {
      "sampler": 0,
      "source": 1
    },
    {
      "sampler": 0,
      "source": 2
    }
  ],
  "images": [
    {
      "mimeType": "image/jpeg",
      "name": "box_profile_metal_sheet_nor_gl",
      "uri": "textures/box_profile_metal_sheet_nor_gl_1k.jpg"
    },
    {
      "mimeType": "image/jpeg",
      "name": "box_profile_metal_sheet_diff",
      "uri": "textures/box_profile_metal_sheet_diff_1k.jpg"
    },
    {
      "mimeType": "image/jpeg",
      "name": "box_profile_metal_sheet_metal-box_profile_metal_sheet_rough",
      "uri": "textures/box_profile_metal_sheet_arm_1k.jpg"
    }
  ],
  "accessors": [
    {
      "bufferView": 0,
      "componentType": 5126,
      "count": 53852,
      "max": [
        1.0049573183059692,
        1.0131313800811768,
        1.0057222843170166
      ],
      "min": [
        -1.004956603050232,
        -1.0131701231002808,
        -1.005724549293518
      ],
      "type": "VEC3"
    },
    {
      "bufferView": 1,
      "componentType": 5126,
      "count": 53852,
      "type": "VEC3"
    },
    {
      "bufferView": 2,
      "componentType": 5126,
      "count": 53852,
      "type": "VEC2"
    },
    {
      "bufferView": 3,
      "componentType": 5123,
      "count": 322170,
      "type": "SCALAR"
    }
  ],
  "bufferViews": [
    {
      "buffer": 0,
      "byteLength": 646224,
      "byteOffset": 0,
      "target": 34962
    },
    {
      "buffer": 0,
      "byteLength": 646224,
      "byteOffset": 646224,
      "target": 34962
    },
    {
      "buffer": 0,
      "byteLength": 430816,
      "byteOffset": 1292448,
      "target": 34962
    },
    {
      "buffer": 0,
      "byteLength": 644340,
      "byteOffset": 1723264,
      "target": 34963
    }
  ],
  "samplers": [
    {
      "magFilter": 9729,
      "minFilter": 9987
    }
  ],
  "buffers": [
    {
      "byteLength": 2367604,
      "uri": "box_profile_metal_sheet.bin"
    }
  ]
}